<svg xmlns="http://www.w3.org/2000/svg" width="600" height="750" viewBox="0 0 600 750">
  <defs>
    <linearGradient id="g" x1="0" y1="0" x2="1" y2="1">
      <stop offset="0" stop-color="#8b5cff"/><stop offset="1" stop-color="#ff5ce0"/>
    </linearGradient>
    <radialGradient id="r" cx="50%" cy="38%" r="70%">
      <stop offset="0" stop-color="rgba(255,255,255,0.25)"/><stop offset="1" stop-color="rgba(0,0,0,0)"/>
    </radialGradient>
    <filter id="b"><feGaussianBlur stdDeviation="10"/></filter>
  </defs>
  <rect width="600" height="750" fill="#0a0a14"/>
  <rect width="600" height="750" fill="url(#g)" opacity="0.85"/>
  <rect width="600" height="750" fill="url(#r)"/>
  <g opacity="0.12" stroke="#fff" stroke-width="1">
    <line x1="0" y1="0" x2="600" y2="-60"/><line x1="0" y1="95" x2="600" y2="35"/><line x1="0" y1="190" x2="600" y2="130"/><line x1="0" y1="285" x2="600" y2="225"/><line x1="0" y1="380" x2="600" y2="320"/><line x1="0" y1="475" x2="600" y2="415"/><line x1="0" y1="570" x2="600" y2="510"/><line x1="0" y1="665" x2="600" y2="605"/>
  </g>
  <circle cx="509" cy="33" r="2.8" fill="#fff" opacity="0.55"/><circle cx="219" cy="524" r="2.4" fill="#fff" opacity="0.27"/><circle cx="146" cy="134" r="0.8" fill="#fff" opacity="0.22"/><circle cx="593" cy="237" r="1.7" fill="#fff" opacity="0.16"/><circle cx="282" cy="144" r="1.2" fill="#fff" opacity="0.30"/><circle cx="199" cy="418" r="2.3" fill="#fff" opacity="0.39"/><circle cx="288" cy="737" r="0.8" fill="#fff" opacity="0.23"/><circle cx="592" cy="278" r="1.1" fill="#fff" opacity="0.21"/><circle cx="596" cy="467" r="2.2" fill="#fff" opacity="0.61"/><circle cx="105" cy="665" r="1.3" fill="#fff" opacity="0.44"/><circle cx="306" cy="4" r="2.8" fill="#fff" opacity="0.44"/><circle cx="183" cy="448" r="2.6" fill="#fff" opacity="0.29"/><circle cx="128" cy="240" r="0.7" fill="#fff" opacity="0.47"/><circle cx="133" cy="472" r="1.6" fill="#fff" opacity="0.46"/><circle cx="112" cy="176" r="2.4" fill="#fff" opacity="0.48"/><circle cx="174" cy="138" r="2.1" fill="#fff" opacity="0.55"/><circle cx="575" cy="68" r="3.0" fill="#fff" opacity="0.36"/><circle cx="528" cy="37" r="1.9" fill="#fff" opacity="0.51"/><circle cx="408" cy="731" r="2.4" fill="#fff" opacity="0.58"/><circle cx="211" cy="235" r="2.9" fill="#fff" opacity="0.27"/><circle cx="540" cy="698" r="0.9" fill="#fff" opacity="0.31"/><circle cx="349" cy="523" r="2.4" fill="#fff" opacity="0.57"/><circle cx="249" cy="496" r="2.4" fill="#fff" opacity="0.17"/><circle cx="435" cy="246" r="0.8" fill="#fff" opacity="0.21"/><circle cx="543" cy="678" r="0.6" fill="#fff" opacity="0.39"/><circle cx="134" cy="21" r="1.5" fill="#fff" opacity="0.49"/><circle cx="133" cy="710" r="2.3" fill="#fff" opacity="0.23"/><circle cx="497" cy="105" r="1.6" fill="#fff" opacity="0.50"/><circle cx="401" cy="146" r="0.9" fill="#fff" opacity="0.54"/><circle cx="282" cy="497" r="1.4" fill="#fff" opacity="0.17"/><circle cx="114" cy="640" r="2.0" fill="#fff" opacity="0.48"/><circle cx="388" cy="521" r="2.3" fill="#fff" opacity="0.25"/><circle cx="461" cy="711" r="2.3" fill="#fff" opacity="0.57"/><circle cx="483" cy="459" r="2.8" fill="#fff" opacity="0.53"/><circle cx="111" cy="332" r="2.8" fill="#fff" opacity="0.42"/><circle cx="179" cy="161" r="1.6" fill="#fff" opacity="0.38"/><circle cx="172" cy="676" r="2.3" fill="#fff" opacity="0.46"/><circle cx="20" cy="1" r="2.5" fill="#fff" opacity="0.45"/><circle cx="182" cy="542" r="1.2" fill="#fff" opacity="0.48"/><circle cx="227" cy="1" r="0.7" fill="#fff" opacity="0.20"/><circle cx="234" cy="149" r="0.7" fill="#fff" opacity="0.36"/><circle cx="295" cy="71" r="2.3" fill="#fff" opacity="0.37"/>
  <g transform="translate(300,315)">
    <circle r="160" fill="rgba(0,0,0,0.18)" filter="url(#b)"/>
    <g transform="translate(-300,-300) scale(1)"><g opacity="0.9"><circle cx="300" cy="300" r="95" fill="rgba(255,255,255,0.92)"/>
  <path d="M155 560 Q160 410 300 410 Q440 410 445 560 Z" fill="rgba(255,255,255,0.92)"/></g></g>
  </g>
  <rect x="0" y="570" width="600" height="180" fill="url(#g)" opacity="0.0"/>
  <text x="300" y="615" font-family="Sora,Arial,sans-serif" font-size="120" font-weight="800" fill="rgba(255,255,255,0.16)" text-anchor="middle">RI</text>
</svg>