<svg xmlns="http://www.w3.org/2000/svg" width="600" height="750" viewBox="0 0 600 750">
  <defs>
    <linearGradient id="g" x1="0" y1="0" x2="1" y2="1">
      <stop offset="0" stop-color="#39e0ff"/><stop offset="1" stop-color="#8b5cff"/>
    </linearGradient>
    <radialGradient id="r" cx="50%" cy="38%" r="70%">
      <stop offset="0" stop-color="rgba(255,255,255,0.25)"/><stop offset="1" stop-color="rgba(0,0,0,0)"/>
    </radialGradient>
    <filter id="b"><feGaussianBlur stdDeviation="10"/></filter>
  </defs>
  <rect width="600" height="750" fill="#0a0a14"/>
  <rect width="600" height="750" fill="url(#g)" opacity="0.85"/>
  <rect width="600" height="750" fill="url(#r)"/>
  <g opacity="0.12" stroke="#fff" stroke-width="1">
    <line x1="0" y1="0" x2="600" y2="-60"/><line x1="0" y1="95" x2="600" y2="35"/><line x1="0" y1="190" x2="600" y2="130"/><line x1="0" y1="285" x2="600" y2="225"/><line x1="0" y1="380" x2="600" y2="320"/><line x1="0" y1="475" x2="600" y2="415"/><line x1="0" y1="570" x2="600" y2="510"/><line x1="0" y1="665" x2="600" y2="605"/>
  </g>
  <circle cx="566" cy="341" r="1.2" fill="#fff" opacity="0.23"/><circle cx="291" cy="444" r="1.5" fill="#fff" opacity="0.40"/><circle cx="315" cy="239" r="2.0" fill="#fff" opacity="0.16"/><circle cx="152" cy="22" r="1.1" fill="#fff" opacity="0.54"/><circle cx="397" cy="328" r="1.5" fill="#fff" opacity="0.30"/><circle cx="245" cy="193" r="0.8" fill="#fff" opacity="0.44"/><circle cx="66" cy="330" r="1.5" fill="#fff" opacity="0.45"/><circle cx="483" cy="232" r="1.2" fill="#fff" opacity="0.59"/><circle cx="496" cy="669" r="2.5" fill="#fff" opacity="0.38"/><circle cx="156" cy="62" r="1.9" fill="#fff" opacity="0.44"/><circle cx="482" cy="6" r="1.3" fill="#fff" opacity="0.48"/><circle cx="169" cy="63" r="1.2" fill="#fff" opacity="0.54"/><circle cx="304" cy="230" r="1.0" fill="#fff" opacity="0.56"/><circle cx="329" cy="378" r="2.5" fill="#fff" opacity="0.42"/><circle cx="468" cy="547" r="1.8" fill="#fff" opacity="0.29"/><circle cx="400" cy="586" r="2.1" fill="#fff" opacity="0.48"/><circle cx="453" cy="271" r="2.7" fill="#fff" opacity="0.44"/><circle cx="281" cy="586" r="2.6" fill="#fff" opacity="0.27"/><circle cx="543" cy="522" r="1.2" fill="#fff" opacity="0.47"/><circle cx="430" cy="9" r="1.9" fill="#fff" opacity="0.20"/><circle cx="344" cy="394" r="2.8" fill="#fff" opacity="0.57"/><circle cx="149" cy="731" r="2.3" fill="#fff" opacity="0.33"/><circle cx="484" cy="639" r="0.6" fill="#fff" opacity="0.43"/><circle cx="241" cy="79" r="1.5" fill="#fff" opacity="0.29"/><circle cx="165" cy="702" r="0.7" fill="#fff" opacity="0.41"/><circle cx="155" cy="629" r="2.9" fill="#fff" opacity="0.24"/><circle cx="276" cy="613" r="1.0" fill="#fff" opacity="0.56"/><circle cx="135" cy="420" r="1.7" fill="#fff" opacity="0.39"/><circle cx="413" cy="509" r="1.8" fill="#fff" opacity="0.50"/><circle cx="536" cy="660" r="1.3" fill="#fff" opacity="0.43"/><circle cx="290" cy="367" r="1.1" fill="#fff" opacity="0.52"/><circle cx="157" cy="305" r="1.3" fill="#fff" opacity="0.56"/><circle cx="319" cy="220" r="1.4" fill="#fff" opacity="0.53"/><circle cx="175" cy="358" r="1.4" fill="#fff" opacity="0.28"/><circle cx="32" cy="609" r="0.9" fill="#fff" opacity="0.51"/><circle cx="392" cy="522" r="1.4" fill="#fff" opacity="0.58"/><circle cx="286" cy="252" r="3.0" fill="#fff" opacity="0.59"/><circle cx="116" cy="142" r="2.7" fill="#fff" opacity="0.18"/><circle cx="315" cy="98" r="1.5" fill="#fff" opacity="0.39"/><circle cx="470" cy="592" r="2.5" fill="#fff" opacity="0.34"/><circle cx="465" cy="58" r="2.1" fill="#fff" opacity="0.29"/><circle cx="217" cy="723" r="0.8" fill="#fff" opacity="0.42"/>
  <g transform="translate(300,315)">
    <circle r="160" fill="rgba(0,0,0,0.18)" filter="url(#b)"/>
    <g transform="translate(-300,-300) scale(1)"><g opacity="0.9"><circle cx="300" cy="300" r="95" fill="rgba(255,255,255,0.92)"/>
  <path d="M155 560 Q160 410 300 410 Q440 410 445 560 Z" fill="rgba(255,255,255,0.92)"/></g></g>
  </g>
  <rect x="0" y="570" width="600" height="180" fill="url(#g)" opacity="0.0"/>
  <text x="300" y="615" font-family="Sora,Arial,sans-serif" font-size="120" font-weight="800" fill="rgba(255,255,255,0.16)" text-anchor="middle">LH</text>
</svg>