<svg xmlns="http://www.w3.org/2000/svg" width="600" height="750" viewBox="0 0 600 750">
  <defs>
    <linearGradient id="g" x1="0" y1="0" x2="1" y2="1">
      <stop offset="0" stop-color="#8b5cff"/><stop offset="1" stop-color="#3b7bff"/>
    </linearGradient>
    <radialGradient id="r" cx="50%" cy="38%" r="70%">
      <stop offset="0" stop-color="rgba(255,255,255,0.25)"/><stop offset="1" stop-color="rgba(0,0,0,0)"/>
    </radialGradient>
    <filter id="b"><feGaussianBlur stdDeviation="10"/></filter>
  </defs>
  <rect width="600" height="750" fill="#0a0a14"/>
  <rect width="600" height="750" fill="url(#g)" opacity="0.85"/>
  <rect width="600" height="750" fill="url(#r)"/>
  <g opacity="0.12" stroke="#fff" stroke-width="1">
    <line x1="0" y1="0" x2="600" y2="-60"/><line x1="0" y1="95" x2="600" y2="35"/><line x1="0" y1="190" x2="600" y2="130"/><line x1="0" y1="285" x2="600" y2="225"/><line x1="0" y1="380" x2="600" y2="320"/><line x1="0" y1="475" x2="600" y2="415"/><line x1="0" y1="570" x2="600" y2="510"/><line x1="0" y1="665" x2="600" y2="605"/>
  </g>
  <circle cx="364" cy="257" r="0.9" fill="#fff" opacity="0.46"/><circle cx="588" cy="118" r="0.9" fill="#fff" opacity="0.60"/><circle cx="85" cy="117" r="1.4" fill="#fff" opacity="0.34"/><circle cx="407" cy="298" r="1.0" fill="#fff" opacity="0.52"/><circle cx="475" cy="428" r="0.7" fill="#fff" opacity="0.30"/><circle cx="432" cy="280" r="2.9" fill="#fff" opacity="0.58"/><circle cx="303" cy="737" r="1.9" fill="#fff" opacity="0.38"/><circle cx="354" cy="367" r="2.5" fill="#fff" opacity="0.44"/><circle cx="531" cy="421" r="1.5" fill="#fff" opacity="0.55"/><circle cx="439" cy="265" r="1.4" fill="#fff" opacity="0.59"/><circle cx="370" cy="403" r="1.3" fill="#fff" opacity="0.28"/><circle cx="115" cy="486" r="2.4" fill="#fff" opacity="0.45"/><circle cx="257" cy="488" r="1.2" fill="#fff" opacity="0.31"/><circle cx="112" cy="240" r="2.0" fill="#fff" opacity="0.45"/><circle cx="281" cy="75" r="1.7" fill="#fff" opacity="0.63"/><circle cx="244" cy="694" r="0.9" fill="#fff" opacity="0.55"/><circle cx="418" cy="591" r="1.6" fill="#fff" opacity="0.38"/><circle cx="223" cy="431" r="1.0" fill="#fff" opacity="0.32"/><circle cx="352" cy="39" r="2.7" fill="#fff" opacity="0.33"/><circle cx="357" cy="434" r="1.0" fill="#fff" opacity="0.43"/><circle cx="244" cy="439" r="2.2" fill="#fff" opacity="0.29"/><circle cx="465" cy="205" r="2.4" fill="#fff" opacity="0.18"/><circle cx="342" cy="208" r="2.9" fill="#fff" opacity="0.37"/><circle cx="104" cy="552" r="1.9" fill="#fff" opacity="0.61"/><circle cx="235" cy="527" r="2.4" fill="#fff" opacity="0.16"/><circle cx="17" cy="205" r="2.8" fill="#fff" opacity="0.51"/><circle cx="166" cy="672" r="0.6" fill="#fff" opacity="0.60"/><circle cx="393" cy="571" r="2.3" fill="#fff" opacity="0.47"/><circle cx="120" cy="177" r="2.8" fill="#fff" opacity="0.31"/><circle cx="189" cy="371" r="0.9" fill="#fff" opacity="0.42"/><circle cx="281" cy="24" r="1.8" fill="#fff" opacity="0.42"/><circle cx="115" cy="449" r="2.6" fill="#fff" opacity="0.17"/><circle cx="561" cy="477" r="2.1" fill="#fff" opacity="0.27"/><circle cx="592" cy="320" r="1.5" fill="#fff" opacity="0.18"/><circle cx="269" cy="60" r="1.6" fill="#fff" opacity="0.41"/><circle cx="560" cy="257" r="1.0" fill="#fff" opacity="0.48"/><circle cx="578" cy="197" r="2.8" fill="#fff" opacity="0.17"/><circle cx="467" cy="483" r="1.8" fill="#fff" opacity="0.62"/><circle cx="367" cy="341" r="2.4" fill="#fff" opacity="0.55"/><circle cx="267" cy="480" r="2.6" fill="#fff" opacity="0.36"/><circle cx="505" cy="125" r="1.8" fill="#fff" opacity="0.37"/><circle cx="576" cy="70" r="2.0" fill="#fff" opacity="0.63"/>
  <g transform="translate(300,315)">
    <circle r="160" fill="rgba(0,0,0,0.18)" filter="url(#b)"/>
    <g transform="translate(-300,-300) scale(1)"><g opacity="0.9"><circle cx="300" cy="300" r="95" fill="rgba(255,255,255,0.92)"/>
  <path d="M155 560 Q160 410 300 410 Q440 410 445 560 Z" fill="rgba(255,255,255,0.92)"/></g></g>
  </g>
  <rect x="0" y="570" width="600" height="180" fill="url(#g)" opacity="0.0"/>
  <text x="300" y="615" font-family="Sora,Arial,sans-serif" font-size="120" font-weight="800" fill="rgba(255,255,255,0.16)" text-anchor="middle">AM</text>
</svg>